Coordinates
version=1
nRows=8
nColumns=28
inDegrees=yes

Units are S.I. units (second, meters, Newtons, ...)
Angles are in degrees.

endheader
time	pelvis_tilt	pelvis_list	pelvis_rotation	pelvis_tx	pelvis_ty	pelvis_tz	hip_flexion_r	hip_adduction_r	hip_rotation_r	knee_angle_r	ankle_angle_r	subtalar_angle_r	mtp_angle_r	hip_flexion_l	hip_adduction_l	hip_rotation_l	knee_angle_l	socket_flexion	socket_adduction	socket_rotation	socket_tx	socket_ty	socket_tz	foot_flex	lumbar_extension	lumbar_bending	lumbar_rotation
      0.32500000	      4.50579547	     -2.60499271	     -7.27662093	     -0.41955061	      1.01930876	      0.29232991	     10.55003996	      4.26797189	      5.12291144	    -64.05584615	      3.04003708	    -14.91756697	     27.11048460	     -4.49803209	     -0.63485844	     -9.59680207	     -7.59648060	      0.00000000	      0.00000000	      0.00000000	      0.00000000	      0.00000000	      0.00000000	      2.19951567	    -12.95659924	     -1.52169700	      7.49949662
      0.32916667	      4.52607416	     -2.71067273	     -7.14996827	     -0.41488084	      1.01959523	      0.29171895	     11.06902209	      4.44186831	      5.09485988	    -63.74373738	      3.43091263	    -14.68836812	     27.25857608	     -4.85089649	     -0.68547751	     -9.47997179	     -7.51634817	      0.00000000	      0.00000000	      0.00000000	      0.00000000	      0.00000000	      0.00000000	      2.30787656	    -13.01382163	     -1.32687775	      7.34454424
      0.33333333	      4.56619246	     -2.72339982	     -7.06741127	     -0.41037910	      1.01983746	      0.29126769	     11.61557326	      4.51773848	      5.09551299	    -63.45623193	      3.50518849	    -14.68250061	     27.27244117	     -5.18723001	     -0.63721811	     -9.45445335	     -7.47794829	      0.00000000	      0.00000000	      0.00000000	      0.00000000	      0.00000000	      0.00000000	      2.36851536	    -13.11434895	     -1.30692022	      7.32864584
      0.33750000	      4.54618487	     -2.95907656	     -6.91198597	     -0.40549892	      1.02009659	      0.29071245	     12.08834240	      4.85469068	      5.04992482	    -63.00627610	      4.12399765	    -14.43118922	     27.44164285	     -5.55286659	     -0.84648453	     -9.28957631	     -7.33777571	      0.00000000	      0.00000000	      0.00000000	      0.00000000	      0.00000000	      0.00000000	      2.50262233	    -13.09340284	     -0.93823861	      7.10192813
      0.34166667	      4.58164125	     -3.07271967	     -6.70757973	     -0.40078853	      1.02033721	      0.29006460	     12.54536475	      5.00306151	      4.93926699	    -62.57371062	      4.48653834	    -14.07371144	     27.56039014	     -5.91855473	     -0.91702913	     -9.12488105	     -7.25130102	      0.00000000	      0.00000000	      0.00000000	      0.00000000	      0.00000000	      0.00000000	      2.62108252	    -13.16236619	     -0.74470540	      6.81357090
      0.34583333	      4.62439674	     -3.06938392	     -6.64419883	     -0.39642981	      1.02049488	      0.28964597	     13.08595346	      5.04882798	      4.94068252	    -62.22102278	      4.54415401	    -14.07350340	     27.56563010	     -6.23869666	     -0.85498426	     -9.10217176	     -7.23082894	      0.00000000	      0.00000000	      0.00000000	      0.00000000	      0.00000000	      0.00000000	      2.67560106	    -13.27596510	     -0.74095370	      6.80017477
      0.35000000	      4.63418289	     -3.29917004	     -6.41410065	     -0.39148179	      1.02075013	      0.28896175	     13.46144990	      5.32254016	      4.81578190	    -61.62067797	      5.10916885	    -13.74773881	     27.66725019	     -6.63540569	     -1.05920616	     -8.87052123	     -7.07958432	      0.00000000	      0.00000000	      0.00000000	      0.00000000	      0.00000000	      0.00000000	      2.83169345	    -13.28009425	     -0.36470048	      6.43363700
      0.35416667	      4.64807054	     -3.40325597	     -6.28748923	     -0.38684712	      1.02088310	      0.28852524	     13.92056197	      5.49127894	      4.78686204	    -61.11230236	      5.41093269	    -13.68661864	     27.68986578	     -6.98582713	     -1.13018856	     -8.76711173	     -6.98249202	      0.00000000	      0.00000000	      0.00000000	      0.00000000	      0.00000000	      0.00000000	      2.91556937	    -13.32392498	     -0.22019075	      6.30645594
